:version 1.10
:name ASF
:units
  mass 1
  length 1
  angle deg
:documentation
  ASF file generated by Kaydara
:root
  axis xyz
  order  tx ty tz rx ry rz
  position 0 0 0
  orientation 0 0 0
:bonedata
  begin
    id 1
    name RightUpLegDummy
    direction -0.65628 -0.754516 0.00165102
    length 4.76918
    axis 0 0 0 xyz
  end
  begin
    id 2
    name RightUpLeg
    direction -0.145584 -0.923362 0.355256
    length 17.9961
    axis -24.7611 -13.1006 1.78531 xyz
    dof rx ry rz
  end
  begin
    id 3
    name RightLeg
    direction 0.263379 0.172355 -0.949171
    length 13.3386
    axis 89.6202 -21.1929 12.3855 xyz
    dof rx ry rz
  end
  begin
    id 4
    name RightFoot
    direction 0.224283 -0.968777 -0.105675
    length 5.86697
    axis 56.995 -39.6905 17.3365 xyz
    dof rx ry rz
  end
  begin
    id 5
    name RightToes
    direction -0.0806345 -0.9037 0.420506
    length 4.75197
    axis 146.825 -39.7828 17.6019 xyz
    dof rx ry rz
  end
  begin
    id 6
    name SpineDummy
    direction -3.39852e-014 1 9.33296e-014
    length 8.13779
    axis 0 0 0 xyz
  end
  begin
    id 7
    name Spine
    direction -0.156609 0.733703 0.661176
    length 7.14978
    axis 41.2365 5.68757 17.0844 xyz
    dof rx ry rz
  end
  begin
    id 8
    name Spine1
    direction 0 0 0
    length 0
    axis 42.8809 47.8308 -3.36039 xyz
    dof rx ry rz
  end
  begin
    id 9
    name HEadDummy
    direction 0.546431 0.701947 0.456819
    length 3.55512
    axis 42.8809 47.8308 -3.36039 xyz
  end
  begin
    id 10
    name HEad
    direction 0.23444 0.828559 0.508457
    length 7.35827
    axis 51.1864 49.2662 27.4903 xyz
    dof rx ry rz
  end
  begin
    id 11
    name LeftShoulder1Dummy
    direction 0.431183 0.475873 -0.766568
    length 2.49352
    axis 42.8809 47.8308 -3.36039 xyz
  end
  begin
    id 12
    name LeftShoulder1
    direction 0.268187 -0.383402 -0.883786
    length 4.48604
    axis -119.517 0.106469 35.1736 xyz
    dof rx ry rz
  end
  begin
    id 13
    name LeftArm
    direction 0.380567 -0.703221 -0.600541
    length 10.1142
    axis -5.41825 36.2925 7.8293 xyz
    dof rx ry rz
  end
  begin
    id 14
    name LeftForeArm
    direction 0.541071 -0.732356 -0.413396
    length 9.39839
    axis 4.65387 33.7604 7.81644 xyz
    dof rx ry rz
  end
  begin
    id 15
    name LeftHand
    direction 0.847511 -0.389379 -0.360707
    length 3.66142
    axis 7.65593 21.1436 -24.6758 xyz
    dof rx ry rz
  end
  begin
    id 16
    name RightShoulderDummy
    direction -0.692546 0.541855 0.476208
    length 2.49352
    axis 42.8809 47.8308 -3.36039 xyz
  end
  begin
    id 17
    name RightShoulder
    direction -0.870808 -0.316653 0.376065
    length 4.48602
    axis 141.571 51.133 -100.254 xyz
    dof rx ry rz
  end
  begin
    id 18
    name RightArm
    direction 0.366897 -0.87275 0.322015
    length 10.1142
    axis 92.3258 71.2036 138.917 xyz
    dof rx ry rz
  end
  begin
    id 19
    name RightForeArm
    direction 0.702487 -0.694568 0.155197
    length 9.39835
    axis 153.863 41.5092 -176.604 xyz
    dof rx ry rz
  end
  begin
    id 20
    name RightHand
    direction 0.79502 -0.601276 0.0800636
    length 3.66142
    axis 154.247 4.59222 142.9 xyz
    dof rx ry rz
  end
  begin
    id 21
    name LeftUpLegDummy
    direction 0.65628 -0.754516 0.00165102
    length 4.76919
    axis 0 0 0 xyz
  end
  begin
    id 22
    name LeftUpLeg
    direction -0.1277 -0.689368 0.713067
    length 17.9961
    axis -48.3385 -17.8675 0.791927 xyz
    dof rx ry rz
  end
  begin
    id 23
    name LeftLeg
    direction 0.109849 -0.991246 -0.0732378
    length 13.3386
    axis -2.05791 -7.30784 1.72042 xyz
    dof rx ry rz
  end
  begin
    id 24
    name LeftFoot
    direction 0.0448355 -0.272614 0.961078
    length 5.86697
    axis -18.7733 -7.89606 10.2113 xyz
    dof rx ry rz
  end
  begin
    id 25
    name LeftToes
    direction -0.18506 0.293668 0.937823
    length 4.75197
    axis 71.2267 -7.89606 10.2113 xyz
    dof rx ry rz
  end
:hierarchy
  begin
    root RightUpLegDummy SpineDummy LeftUpLegDummy
    RightUpLegDummy RightUpLeg
    RightUpLeg RightLeg
    RightLeg RightFoot
    RightFoot RightToes
    SpineDummy Spine
    Spine Spine1
    Spine1 HEadDummy LeftShoulder1Dummy RightShoulderDummy
    HEadDummy HEad
    LeftShoulder1Dummy LeftShoulder1
    LeftShoulder1 LeftArm
    LeftArm LeftForeArm
    LeftForeArm LeftHand
    RightShoulderDummy RightShoulder
    RightShoulder RightArm
    RightArm RightForeArm
    RightForeArm RightHand
    LeftUpLegDummy LeftUpLeg
    LeftUpLeg LeftLeg
    LeftLeg LeftFoot
    LeftFoot LeftToes
  end

:SAMPLES-PER-SECOND 30
:FULLY-SPECIFIED
:DEGREES
255
root  21.3659 14.4524 -20.5429 159.833 75.2543 -83.4433
RightUpLeg  -10.1647 17.8739 -50.594
RightLeg  -102.664 -10.2071 22.2797
RightFoot  34.0155 11.6865 -26.1415
RightToes  -1.27222e-014 -6.36111e-015 6.36111e-015
Spine  -4.83363 -10.0944 -5.4573
Spine1  14.8198 -12.1923 59.8452
HEad  45.224 -22.724 -21.5573
LeftShoulder1  6.36111e-015 -1.33558e-015 6.49777e-015
LeftArm  73.0336 45.8158 14.4237
LeftForeArm  28.4319 -54.6969 -11.4461
LeftHand  11.1954 17.3532 16.3637
RightShoulder  -4.77083e-015 -6.36111e-015 -3.18055e-015
RightArm  105.763 -40.895 -73.4128
RightForeArm  0.939553 -7.95117 10.6189
RightHand  10.3752 -10.2885 -35.9691
LeftUpLeg  -4.37992 16.4422 66.4082
LeftLeg  -33.0627 20.0227 -13.9165
LeftFoot  -17.2673 -7.86085 53.5174
LeftToes  9.54166e-015 -1.91609e-011 -2.3878e-011
256
root  21.835 13.6401 -21.2946 86.904 80.654 -156.665
RightUpLeg  -6.01751 12.7069 -45.4262
RightLeg  -96.2487 -12.9657 18.0303
RightFoot  32.7393 9.53512 -23.4858
RightToes  -1.27222e-014 -6.36111e-015 6.36111e-015
Spine  -1.86233 -11.5404 -8.8009
Spine1  16.7446 -12.1046 56.2065
HEad  45.6883 -21.5915 -21.8746
LeftShoulder1  6.36111e-015 -1.33558e-015 6.49777e-015
LeftArm  67.2349 47.364 -6.10209
LeftForeArm  20.8112 -41.1637 -9.98769
LeftHand  11.1965 16.3937 18.2551
RightShoulder  -4.77083e-015 -6.36111e-015 -3.18055e-015
RightArm  109.928 -43.5204 -80.4304
RightForeArm  4.58734 -2.62947 9.2863
RightHand  12.0626 -9.41304 -43.873
LeftUpLeg  -13.5007 16.9575 62.9862
LeftLeg  -28.8277 16.3727 -10.3166
LeftFoot  -14.8169 1.08065 -6.34498
LeftToes  9.54166e-015 -1.91609e-011 -2.3878e-011
257
root  21.7385 13.1131 -22.3023 46.0283 67.0759 156.216
RightUpLeg  -5.88706 1.58346 -41.2699
RightLeg  -90.3309 -14.2439 12.5474
RightFoot  31.2513 8.79458 -22.5091
RightToes  -1.27222e-014 -6.36111e-015 6.36111e-015
Spine  -3.57748 -12.5876 -12.1268
Spine1  19.1609 -10.8773 46.174
HEad  46.451 -24.7171 -17.926
LeftShoulder1  6.36111e-015 -1.33558e-015 6.49777e-015
LeftArm  58.2725 42.6767 -25.9073
LeftForeArm  16.4756 -30.9842 -13.4549
LeftHand  10.8978 18.6654 12.945
RightShoulder  -4.77083e-015 -6.36111e-015 -3.18055e-015
RightArm  109.189 -43.733 -85.0879
RightForeArm  7.61837 1.70373 7.19904
RightHand  14.6711 -8.28421 -55.3635
LeftUpLeg  -20.982 18.8169 58.6452
LeftLeg  -29.8342 13.8837 -9.97983
LeftFoot  -14.1405 0.895535 -5.00879
LeftToes  9.54166e-015 -1.91609e-011 -2.3878e-011
258
root  20.8697 12.711 -23.1527 46.2819 47.8276 145.318
RightUpLeg  -9.08947 -7.12698 -37.6576
RightLeg  -87.5216 -14.501 9.94735
RightFoot  33.2768 3.74517 -16.418
RightToes  -1.27222e-014 -6.36111e-015 6.36111e-015
Spine  -7.66277 -13.1978 -14.4521
Spine1  22.0745 -7.61986 32.5202
HEad  44.974 -33.4966 -12.7767
LeftShoulder1  6.36111e-015 -1.33558e-015 6.49777e-015
LeftArm  55.0927 31.1428 -46.2996
LeftForeArm  4.89464 -21.7156 -8.97123
LeftHand  4.2559 12.3536 -2.64696
RightShoulder  -4.77083e-015 -6.36111e-015 -3.18055e-015
RightArm  105.609 -44.8357 -85.6691
RightForeArm  7.36769 -1.03469 7.57369
RightHand  16.2082 -7.64089 -61.8377
LeftUpLeg  -26.0409 18.4887 56.8857
LeftLeg  -29.649 2.99456 -5.57923
LeftFoot  -14.5948 0.714859 -4.00627
LeftToes  9.54166e-015 -1.91609e-011 -2.3878e-011
